<?xml version="1.0" encoding="UTF-8"?>
<svg id="Layer_1" xmlns="http://www.w3.org/2000/svg" xmlns:xlink="http://www.w3.org/1999/xlink" version="1.1" viewBox="0 0 595.28 841.89">
  <!-- Generator: Adobe Illustrator 29.3.1, SVG Export Plug-In . SVG Version: 2.1.0 Build 151)  -->
  <defs>
    <style>
      .st0 {
        stroke-width: 9px;
      }

      .st0, .st1, .st2, .st3, .st4, .st5, .st6, .st7, .st8, .st9, .st10, .st11, .st12, .st13, .st14, .st15, .st16, .st17, .st18, .st19, .st20, .st21, .st22, .st23, .st24 {
        stroke-miterlimit: 10;
      }

      .st0, .st25 {
        fill: #00a651;
      }

      .st0, .st11, .st13, .st19, .st20 {
        stroke: #231f20;
      }

      .st26, .st2, .st3, .st4, .st7, .st15, .st22, .st23 {
        fill: none;
      }

      .st27 {
        fill: #fbb040;
        font-size: 43.46px;
      }

      .st27, .st8 {
        font-family: MyriadPro-Regular, 'Myriad Pro';
      }

      .st1 {
        stroke: #39b54a;
      }

      .st1, .st6, .st9, .st12, .st14, .st28 {
        fill: #051916;
      }

      .st1, .st9, .st13 {
        stroke-width: 7px;
      }

      .st2 {
        stroke: #d7df23;
        stroke-width: 8px;
      }

      .st3, .st4, .st5, .st6, .st9, .st18, .st21 {
        stroke: #fff;
      }

      .st3, .st6, .st11, .st15, .st21, .st22 {
        stroke-width: 5px;
      }

      .st29 {
        fill: #603913;
      }

      .st4, .st5 {
        stroke-width: 4px;
      }

      .st5, .st30 {
        fill: #00aeef;
      }

      .st7 {
        stroke: #6e3248;
      }

      .st7, .st8, .st14, .st23 {
        stroke-width: 6px;
      }

      .st8 {
        font-size: 49.73px;
      }

      .st8, .st10, .st15, .st17, .st24 {
        stroke: #006838;
      }

      .st8, .st13, .st18 {
        fill: #231f20;
      }

      .st10 {
        fill: #ee2a7b;
      }

      .st10, .st16, .st17, .st24 {
        stroke-width: 2px;
      }

      .st11, .st31, .st20, .st21 {
        fill: #fff;
      }

      .st12 {
        stroke-width: 90px;
      }

      .st12, .st14 {
        stroke: #00a651;
      }

      .st32 {
        fill: #262262;
      }

      .st16 {
        fill: #ef4136;
        stroke: #00aeef;
      }

      .st17 {
        fill: #2e3192;
      }

      .st19 {
        fill: #fff200;
      }

      .st22 {
        stroke: url(#Super_Soft_Black_Vignette);
      }

      .st23 {
        stroke: url(#Super_Soft_Black_Vignette1);
      }

      .st24 {
        fill: #c49a6c;
      }
    </style>
    <radialGradient id="Super_Soft_Black_Vignette" data-name="Super Soft Black Vignette" cx="296.7" cy="263.6" fx="296.7" fy="263.6" r="98.5" gradientUnits="userSpaceOnUse">
      <stop offset=".57" stop-color="#130c0e" stop-opacity="0"/>
      <stop offset=".8" stop-color="#130c0e" stop-opacity=".65"/>
      <stop offset=".82" stop-color="#130c0e" stop-opacity=".7"/>
      <stop offset="1" stop-color="#130c0e" stop-opacity=".95"/>
    </radialGradient>
    <radialGradient id="Super_Soft_Black_Vignette1" data-name="Super Soft Black Vignette" cx="286.49" cy="293.83" fx="286.49" fy="293.83" r="96.21" xlink:href="#Super_Soft_Black_Vignette"/>
  </defs>
  <path class="st7" d="M168.08,231.29l274.34-3.34"/>
  <path class="st22" d="M157.65,267.98c92.7-2.92,185.39-5.84,278.09-8.76"/>
  <path class="st14" d="M163.64,202.94c91.36-1.11,182.72-2.22,274.08-3.34"/>
  <ellipse class="st0" cx="307.43" cy="237.29" rx="84.68" ry="66.55"/>
  <polygon class="st19" points="347.62 268.89 263.9 270.17 240.65 209.07 310.02 170.04 376.13 207.01 347.62 268.89"/>
  <path class="st20" d="M256.45,290.43"/>
  <line class="st20" x1="261.7" y1="279.67" x2="253.91" y2="288.86"/>
  <line class="st20" x1="351.98" y1="280.16" x2="360.96" y2="288.86"/>
  <path class="st18" d="M334.49,258.05l-46.89-.25c-5.13-.03-9.74-3.15-11.66-7.91l-13.57-33.61,45.02-25.34,44.57,25.82-17.47,41.3Z"/>
  <rect class="st26" y="168.26" width="746.35" height="205.31"/>
  <path id="BACKROUND" class="st28" d="M538.83,381.09c-148.73-2.76-297.46-5.52-446.19-8.29-29.94-.56-59.88-1.11-89.82-1.67,7.85-22.43,15.69-44.86,23.54-67.29l536.01,9.95-23.54,67.29Z"/>
  <path class="st13" d="M280.25,250.96c-4.53,8.92-18.55,12.28-31.3,7.51-12.75-4.78-19.41-15.89-14.87-24.81,4.53-8.92,18.55-12.28,31.3-7.51,12.75,4.78,19.41,15.89,14.87,24.81Z"/>
  <path class="st11" d="M261.23,242.97s85.04,5.49-5.62,2.77c-1.95-.73-2.61-3.16-1.46-5.43s3.67-3.51,5.62-2.77,1.46,5.43,1.46,5.43Z"/>
  <path class="st21" d="M292.49,246.36c-.54,1.07-2.5,1.36-4.37.66-1.87-.7-2.95-2.13-2.41-3.2s2.5-1.36,4.37-.66,93.95-57.29,2.41,3.2Z"/>
  <path class="st4" d="M279.64,250.73c-5.69,11.19-21.32,16.13-34.92,11.03-13.6-5.1-20.01-18.3-14.33-29.49,5.69-11.19,21.32-16.13,34.92-11.03,13.6,5.1,20.01,18.3,14.33,29.49Z"/>
  <path class="st15" d="M276.87,249.69c-3.74,7.36-15.82,9.94-26.97,5.76-11.16-4.18-17.17-13.54-13.43-20.9,3.74-7.36,15.82-9.94,26.97-5.76,11.16,4.18,17.17,13.54,13.43,20.9Z"/>
  <path class="st1" d="M361.6,261.37c-8.13,6.94-22.88,6.31-32.95-1.43-10.06-7.73-11.62-19.63-3.49-26.57,8.13-6.94,22.88-6.31,32.95,1.43,10.06,7.73,11.62,19.63,3.49,26.57Z"/>
  <line class="st9" x1="258.02" y1="240.73" x2="291.21" y2="221.47"/>
  <path class="st6" d="M290.57,212.72l1.54,8.43c-.32,1.27,1.09.41,1.09.41"/>
  <path class="st6" d="M292.49,221.82c-.28.54-1.06.77-1.76.51s-1.03-.91-.76-1.45,1.06-.77,1.76-.51,1.03.91.76,1.45Z"/>
  <path class="st6" d="M348.91,249.44c-1.49,2.94-5.75,4.18-9.5,2.78-3.75-1.41-5.58-4.93-4.09-7.87,1.49-2.94,5.75-4.18,9.5-2.78,3.75,1.41,5.58,4.93,4.09,7.87Z"/>
  <path class="st21" d="M256.87,243.06c10.52.69,21.04,1.37,31.56,2.06"/>
  <path class="st31" d="M292.62,222.91l.95.36c.33.1.66.12,1,.04.33-.02.64-.11.93-.3.29-.16.53-.37.7-.64.22-.24.37-.52.45-.85l.09-.66c0-.45-.12-.87-.34-1.26l-.39-.51c-.31-.31-.68-.52-1.1-.64l-.95-.36c-.33-.1-.66-.12-1-.04-.33.02-.64.11-.93.3-.29.16-.53.37-.7.64-.22.24-.37.52-.45.85l-.09.66c0,.45.12.87.34,1.26l.39.51c.31.31.68.52,1.1.64h0Z"/>
  <path class="st31" d="M326.93,216.2c-11.05,3.04-22.73,2.05-34,1.18l.66,4.91c6.29-1.36,12.81-.69,19.18-.68s13.26-.34,19.88-.59l-2.5-2.5c-.1,2.69-.55,5.34.51,7.91.98,2.38,2.54,4.47,4.01,6.57,2.98,4.25,5.16,8.69,5.95,13.86.21,1.34,1.88,2.07,3.08,1.75,1.43-.39,1.95-1.74,1.75-3.08-.78-5.04-2.84-9.78-5.71-13.98-1.35-1.97-2.81-3.88-3.96-5.98-1.24-2.27-.72-4.57-.63-7.06.05-1.31-1.19-2.55-2.5-2.5-6.78.26-13.58.62-20.37.59s-13.42-.56-20.02.86c-1.2.26-1.96,1.58-1.79,2.74.19,1.28,1.18,2.07,2.46,2.17,11.74.9,23.83,1.8,35.33-1.36,3.1-.85,1.78-5.68-1.33-4.82h0Z"/>
  <path class="st5" d="M284.56,210.64c-1.71-1.02-2.44-3-1.65-4.48.17-.32.41-.62.79-.79.31-.14.68-.17,1.04-.17,1.32-.02,2.65.26,3.95.55,1.67.36,3.34.72,5.01,1.08,1.92.42,3.94.87,5.42,1.99,1.48,1.12,2.16,3.11.91,4.26-2.31,2.12-12.8-.85-15.47-2.43Z"/>
  <path class="st4" d="M345.14,221.67c-8.63-2.9-17.27-5.81-25.9-8.71"/>
  <path class="st9" d="M292.11,221.14c-.69,7.68-1.37,15.35-2.06,23.03"/>
  <path class="st30" d="M321.82,213.99c-.71,1.4-2.46,2.09-3.91,1.55s-2.04-2.11-1.33-3.51,2.46-2.09,3.91-1.55,2.04,2.11,1.33,3.51Z"/>
  <path class="st30" d="M346.92,222.12c-.45.88-1.72,1.25-2.85.83s-1.67-1.48-1.23-2.36,1.72-1.25,2.85-.83,1.67,1.48,1.23,2.36Z"/>
  <path class="st3" d="M318.21,237.63c5.18-10.2,20.76-14.2,34.8-8.94,14.04,5.26,21.21,17.79,16.03,27.99-5.18,10.2-20.76,14.2-34.8,8.94-14.04-5.26-21.21-17.79-16.03-27.99Z"/>
  <path class="st9" d="M260.46,241.73c-.43.84-2.09,1.03-3.72.42-1.63-.61-2.61-1.79-2.18-2.63s2.09-1.03,3.72-.42,2.61,1.79,2.18,2.63Z"/>
  <text></text>
  <text class="st27" transform="translate(134.31 354.85) rotate(.05) scale(2.08 1) skewX(1.58)"><tspan x="0" y="0">BIK</tspan></text>
  <text class="st8" transform="translate(292.63 361.93) rotate(-2.96) scale(1.06 .97) skewX(12.15)"><tspan x="0" y="0">Z</tspan></text>
  <path class="st24" d="M400.3,359.19c-6.38,7.27-25.5,7.51-34.43,5.15-.83-.22-12.72-3.21-15.63-10.05-.41-.96-1.94-4.56,1.28-7.97,5.3-5.64,21.43-8.58,34.43-5.15,12.03,3.17,20.1,11.47,14.35,18.02Z"/>
  <polygon class="st10" points="377.83 363.01 365.11 361.03 357.44 355.18 358.41 348.2 367.57 343.35 380.63 342.91 391.48 347.07 395.04 353.9 389.65 360.2 377.83 363.01"/>
  <polygon class="st17" points="396.66 346.19 373.77 364.94 355.7 344.95 396.66 346.19"/>
  <polygon class="st16" points="396.88 358.99 356.3 359.17 374.83 340.2 396.88 358.99"/>
  <path class="st30" d="M150.15,239.21c3.22,0,3.22-5,0-5s-3.22,5,0,5h0Z"/>
  <path class="st30" d="M107.62,256.72h-.42c-.34-.01-.67.06-.96.22-.31.1-.58.27-.8.52-.24.23-.42.49-.52.8-.16.3-.23.62-.22.96l.09.66c.12.42.33.79.64,1.1l.51.39c.39.23.81.34,1.26.34h.42c.34.01.67-.06.96-.22.31-.1.58-.27.8-.52.24-.23.42-.49.52-.8.16-.3.23-.62.22-.96l-.09-.66c-.12-.42-.33-.79-.64-1.1l-.51-.39c-.39-.23-.81-.34-1.26-.34h0Z"/>
  <path class="st23" d="M150.57,295.91c90.61-1.39,181.23-2.78,271.84-4.17"/>
  <path class="st12" d="M85.53,230.45"/>
  <path class="st12" d="M103.45,228.78"/>
  <path class="st25" d="M156.4,204.18c3.22,0,3.22-5,0-5s-3.22,5,0,5h0Z"/>
  <path class="st25" d="M142.65,199.6c3.22,0,3.22-5,0-5s-3.22,5,0,5h0Z"/>
  <path class="st25" d="M137.64,210.02c3.22,0,3.22-5,0-5s-3.22,5,0,5h0Z"/>
  <path class="st25" d="M128.05,204.6c3.22,0,3.22-5,0-5s-3.22,5,0,5h0Z"/>
  <path class="st25" d="M125.13,191.26c3.22,0,3.22-5,0-5s-3.22,5,0,5h0Z"/>
  <path class="st25" d="M120.97,211.69c3.22,0,3.22-5,0-5s-3.22,5,0,5h0Z"/>
  <path class="st25" d="M114.71,204.18c3.22,0,3.22-5,0-5s-3.22,5,0,5h0Z"/>
  <path class="st25" d="M149.73,218.78c3.22,0,3.22-5,0-5s-3.22,5,0,5h0Z"/>
  <path class="st25" d="M134.31,220.86c3.22,0,3.22-5,0-5s-3.22,5,0,5h0Z"/>
  <path class="st25" d="M120.55,217.95h-1.67c-.34-.01-.67.06-.96.22-.31.1-.58.27-.8.52-.24.23-.42.49-.52.8-.16.3-.23.62-.22.96l.09.66c.12.42.33.79.64,1.1l.51.39c.39.23.81.34,1.26.34h1.67c.34.01.67-.06.96-.22.31-.1.58-.27.8-.52.24-.23.42-.49.52-.8.16-.3.23-.62.22-.96l-.09-.66c-.12-.42-.33-.79-.64-1.1l-.51-.39c-.39-.23-.81-.34-1.26-.34h0Z"/>
  <path class="st25" d="M107.72,217.01l-.42-.42c-.23-.24-.49-.42-.8-.52-.3-.16-.62-.23-.96-.22-.34-.01-.67.06-.96.22-.31.1-.58.27-.8.52l-.39.51c-.23.39-.34.81-.34,1.26l.09.66c.12.42.33.79.64,1.1l.42.42c.23.24.49.42.8.52.3.16.62.23.96.22.34.01.67-.06.96-.22.31-.1.58-.27.8-.52l.39-.51c.23-.39.34-.81.34-1.26l-.09-.66c-.12-.42-.33-.79-.64-1.1h0Z"/>
  <path class="st29" d="M150.15,240.04c3.22,0,3.22-5,0-5s-3.22,5,0,5h0Z"/>
  <path class="st29" d="M124.3,235.87c3.22,0,3.22-5,0-5s-3.22,5,0,5h0Z"/>
  <path class="st29" d="M138.89,233.79c3.22,0,3.22-5,0-5s-3.22,5,0,5h0Z"/>
  <path class="st29" d="M133.89,243.38c3.22,0,3.22-5,0-5s-3.22,5,0,5h0Z"/>
  <path class="st29" d="M108.04,235.87c3.22,0,3.22-5,0-5s-3.22,5,0,5h0Z"/>
  <path class="st29" d="M107.62,247.96c3.22,0,3.22-5,0-5s-3.22,5,0,5h0Z"/>
  <path class="st29" d="M118.05,244.63c3.22,0,3.22-5,0-5s-3.22,5,0,5h0Z"/>
  <path class="st29" d="M123.88,252.55c3.22,0,3.22-5,0-5s-3.22,5,0,5h0Z"/>
  <path class="st29" d="M137.64,250.46c3.22,0,3.22-5,0-5s-3.22,5,0,5h0Z"/>
  <path class="st29" d="M148.9,249.21h.42c.34.01.67-.06.96-.22.31-.1.58-.27.8-.52.24-.23.42-.49.52-.8.16-.3.23-.62.22-.96l-.09-.66c-.12-.42-.33-.79-.64-1.1l-.51-.39c-.39-.23-.81-.34-1.26-.34h-.42c-.34-.01-.67.06-.96.22-.31.1-.58.27-.8.52-.24.23-.42.49-.52.8-.16.3-.23.62-.22.96l.09.66c.12.42.33.79.64,1.1l.51.39c.39.23.81.34,1.26.34h0Z"/>
  <path class="st29" d="M106.79,262.14c3.22,0,3.22-5,0-5s-3.22,5,0,5h0Z"/>
  <path class="st32" d="M145.15,270.89c3.22,0,3.22-5,0-5s-3.22,5,0,5h0Z"/>
  <path class="st32" d="M136.81,271.73c3.22,0,3.22-5,0-5s-3.22,5,0,5h0Z"/>
  <path class="st32" d="M111.79,270.89c3.22,0,3.22-5,0-5s-3.22,5,0,5h0Z"/>
  <path class="st32" d="M103.45,282.57c3.22,0,3.22-5,0-5s-3.22,5,0,5h0Z"/>
  <path class="st32" d="M115.13,280.9h.42c.34.01.67-.06.96-.22.31-.1.58-.27.8-.52.24-.23.42-.49.52-.8.16-.3.23-.62.22-.96l-.09-.66c-.12-.42-.33-.79-.64-1.1l-.51-.39c-.39-.23-.81-.34-1.26-.34h-.42c-.34-.01-.67.06-.96.22-.31.1-.58.27-.8.52-.24.23-.42.49-.52.8-.16.3-.23.62-.22.96l.09.66c.12.42.33.79.64,1.1l.51.39c.39.23.81.34,1.26.34h0Z"/>
  <path class="st32" d="M128.05,271.31c3.22,0,3.22-5,0-5s-3.22,5,0,5h0Z"/>
  <path class="st32" d="M126.39,261.72c3.22,0,3.22-5,0-5s-3.22,5,0,5h0Z"/>
  <path class="st32" d="M144.31,261.3c3.22,0,3.22-5,0-5s-3.22,5,0,5h0Z"/>
  <path class="st32" d="M100.95,271.73c3.22,0,3.22-5,0-5s-3.22,5,0,5h0Z"/>
  <path class="st32" d="M118.05,294.66c3.22,0,3.22-5,0-5s-3.22,5,0,5h0Z"/>
  <path class="st32" d="M130.55,286.74h.42c.34.01.67-.06.96-.22.31-.1.58-.27.8-.52.24-.23.42-.49.52-.8.16-.3.23-.62.22-.96l-.09-.66c-.12-.42-.33-.79-.64-1.1l-.51-.39c-.39-.23-.81-.34-1.26-.34h-.42c-.34-.01-.67.06-.96.22-.31.1-.58.27-.8.52-.24.23-.42.49-.52.8-.16.3-.23.62-.22.96l.09.66c.12.42.33.79.64,1.1l.51.39c.39.23.81.34,1.26.34h0Z"/>
  <path class="st32" d="M146.5,282.25l.42-.42c.24-.23.42-.49.52-.8.16-.3.23-.62.22-.96.01-.34-.06-.67-.22-.96-.1-.31-.27-.58-.52-.8l-.51-.39c-.39-.23-.81-.34-1.26-.34l-.66.09c-.42.12-.79.33-1.1.64l-.42.42c-.24.23-.42.49-.52.8-.16.3-.23.62-.22.96-.01.34.06.67.22.96.1.31.27.58.52.8l.51.39c.39.23.81.34,1.26.34l.66-.09c.42-.12.79-.33,1.1-.64h0Z"/>
  <path class="st32" d="M109.29,290.49c3.22,0,3.22-5,0-5s-3.22,5,0,5h0Z"/>
  <path class="st32" d="M129.72,275.07h-.83c-.34-.01-.67.06-.96.22-.31.1-.58.27-.8.52-.24.23-.42.49-.52.8-.16.3-.23.62-.22.96l.09.66c.12.42.33.79.64,1.1l.51.39c.39.23.81.34,1.26.34h.83c.34.01.67-.06.96-.22.31-.1.58-.27.8-.52.24-.23.42-.49.52-.8.16-.3.23-.62.22-.96l-.09-.66c-.12-.42-.33-.79-.64-1.1l-.51-.39c-.39-.23-.81-.34-1.26-.34h0Z"/>
  <path class="st32" d="M143.06,294.66c3.22,0,3.22-5,0-5s-3.22,5,0,5h0Z"/>
  <path class="st32" d="M123.47,295.91h-.42c-.34-.01-.67.06-.96.22-.31.1-.58.27-.8.52-.24.23-.42.49-.52.8-.16.3-.23.62-.22.96l.09.66c.12.42.33.79.64,1.1l.51.39c.39.23.81.34,1.26.34h.42c.34.01.67-.06.96-.22.31-.1.58-.27.8-.52.24-.23.42-.49.52-.8.16-.3.23-.62.22-.96l-.09-.66c-.12-.42-.33-.79-.64-1.1l-.51-.39c-.39-.23-.81-.34-1.26-.34h0Z"/>
  <path class="st32" d="M108.46,296.74c3.22,0,3.22-5,0-5s-3.22,5,0,5h0Z"/>
  <path class="st32" d="M95.53,292.57c3.22,0,3.22-5,0-5s-3.22,5,0,5h0Z"/>
  <path class="st32" d="M100.54,306.75c3.22,0,3.22-5,0-5s-3.22,5,0,5h0Z"/>
  <ellipse class="st2" cx="210.19" cy="154.57" rx="29.6" ry="1.25"/>
  <ellipse class="st2" cx="357.16" cy="138.1" rx="31.9" ry=".21"/>
</svg>